<?xml version="1.0" encoding="utf-8"?>
<!-- Generator: Adobe Illustrator 16.0.0, SVG Export Plug-In . SVG Version: 6.00 Build 0)  -->
<!DOCTYPE svg PUBLIC "-//W3C//DTD SVG 1.1//EN" "http://www.w3.org/Graphics/SVG/1.1/DTD/svg11.dtd">
<svg version="1.1" id="Layer_1" xmlns="http://www.w3.org/2000/svg" xmlns:xlink="http://www.w3.org/1999/xlink" x="0px" y="0px"
	 width="590.223px" height="336.77px" viewBox="0 0 590.223 336.77" enable-background="new 0 0 590.223 336.77"
	 xml:space="preserve">
<g>
	<path fill="#012161" d="M122.855,128.332c6.667,0,13.088,0.74,18.77,1.978c5.679,1.233,11.109,3.704,16.297,6.914
		c17.532-36.301,31.355-65.188,41.977-86.425c10.618-21.232,18.77-35.558,24.198-42.964c1.482-2.47,4.692-4.443,9.631-5.926
		c5.188-1.479,11.358-2.222,18.521-2.222c4.688,0,9.63,0.246,14.319,0.985c4.69,0.74,8.891,1.729,12.594,2.965
		c3.702,1.234,6.667,2.718,8.643,4.443c2.222,1.729,2.715,3.456,1.975,5.435c-4.195,11.355-9.63,23.703-16.296,37.038
		c-6.667,13.334-13.583,27.16-21.233,41.481c-7.408,14.321-15.063,28.646-22.963,42.964c-7.901,14.568-15.063,28.645-21.73,42.721
		c-6.667,13.826-12.344,27.158-17.53,39.753c-5.186,12.596-8.643,23.949-10.615,34.072c-1.234,5.93-1.234,10.125-0.493,12.596
		c0.739,2.471,2.221,3.947,3.95,3.947c1.728,0.246,3.949-0.736,6.421-2.961c2.469-2.223,4.688-4.938,6.914-8.146
		c3.211-4.197,6.421-8.891,10.124-14.074c3.702-5.184,7.159-10.371,10.369-15.311c3.211-4.938,6.176-9.383,8.645-13.578
		c2.47-4.199,4.198-6.916,5.185-8.646c3.705-6.914,7.901-11.604,12.84-13.829c4.938-2.222,9.386-2.468,13.333-0.737
		c3.952,1.479,6.915,4.689,8.646,9.383c1.728,4.689,1.234,10.125-1.481,16.792c-7.899,12.838-14.813,24.938-20.74,35.803
		c-5.928,10.865-12.101,20.988-18.521,30.123c-9.137,12.346-19.013,22.965-29.878,31.854c-10.864,8.889-23.951,13.336-38.767,13.336
		c-9.387,0-17.285-2.719-24.198-7.904c-6.914-5.432-10.371-12.592-10.371-21.482c-4.691,5.188-10.125,10.127-16.297,15.313
		c-6.172,5.182-12.347,9.383-19.014,13.086s-13.581,6.42-20.741,8.148c-7.161,1.729-14.321,1.975-21.236,0.738
		c-20.741-4.195-34.075-14.566-39.754-30.865c-3.953-10.615-5.187-22.471-3.706-35.311c1.481-12.84,4.691-25.678,9.63-38.768
		c5.188-13.088,11.605-25.683,19.753-38.025c8.148-12.345,17.286-23.211,27.162-32.841c9.877-9.63,20.742-17.285,31.854-22.963
		C100.634,131.294,111.745,128.332,122.855,128.332z M91.498,208.086c-6.668,7.902-12.35,15.807-16.544,23.953
		c-4.196,8.146-7.407,15.803-9.386,22.963c-1.976,7.16-2.963,13.332-2.963,18.768c0,5.432,0.742,9.135,2.473,11.357
		c1.231,1.729,3.457,0.738,6.667-2.473c3.457-3.455,7.405-8.395,12.1-15.061c4.69-6.67,9.629-14.322,15.063-23.209
		c5.433-8.893,10.616-17.781,16.05-26.916c5.433-9.139,10.371-18.024,15.063-26.915c4.692-8.645,8.646-16.3,12.104-22.472
		c-1.482-3.458-6.42-2.224-14.816,3.21C118.905,177.222,107.052,189.321,91.498,208.086z"/>
	<path fill="#FFBF00" d="M521.388,254.262c5.433-6.666,10.866-14.32,16.543-22.473c5.681-8.395,10.864-16.543,15.557-24.689
		c3.704-7.654,8.148-12.596,13.581-15.063c5.435-2.469,10.126-2.716,14.074-0.983c4.198,1.729,6.914,5.185,8.395,10.12
		c1.482,5.188,0.496,11.112-3.208,18.274c-5.929,10.617-11.357,20.246-16.053,28.889c-4.688,8.646-9.381,16.545-13.827,23.705
		c-4.44,7.16-9.134,13.826-13.578,19.752c-4.443,6.178-9.385,11.854-14.32,17.037c-6.666,7.656-15.558,13.337-26.419,16.793
		c-10.866,3.705-21.483,5.186-32.104,4.197c-10.619-0.988-19.753-4.197-27.161-10.371c-7.651-5.926-11.355-15.061-11.355-26.914
		c-0.246-3.703,0.494-8.889,2.47-15.803c1.977-6.914,4.444-14.566,7.654-22.715c3.21-8.396,6.175-16.793,9.385-25.684
		s5.926-17.039,7.9-24.443c2.222-7.408,3.458-13.829,3.701-19.509c0.246-5.681-0.737-9.138-3.21-10.863
		c-5.927-3.456-11.853-1.979-18.271,3.951c-6.172,6.171-12.345,14.813-18.271,25.926c-5.928,11.356-11.355,23.949-16.543,38.518
		c-5.187,14.322-9.385,27.902-13.332,40.988c-3.704,12.84-6.67,23.951-8.645,33.334c-1.977,9.385-2.717,14.568-2.225,16.051
		c-7.406-0.738-14.566-1.48-21.729-2.223c-7.16-0.494-13.827-1.73-19.753-3.705c-5.927-1.977-10.864-4.938-15.062-8.889
		c-4.198-3.951-6.666-9.631-7.408-16.792c-0.247-2.224,0.494-6.669,2.471-13.332c1.979-6.668,4.443-14.323,7.406-22.966
		c2.964-8.643,6.174-18.023,9.384-27.652c3.457-9.629,6.421-18.768,9.135-27.16c2.721-8.397,4.692-15.803,5.684-21.73
		c1.23-6.174,0.984-9.876-0.494-11.604c-4.196-4.446-9.137-4.446-14.814,0.246c-5.681,4.689-11.356,11.853-17.282,21.975
		c-5.93,9.878-11.854,21.73-17.531,35.064c-5.682,13.332-10.866,26.42-15.064,39.506c-4.194,12.838-7.405,24.691-9.63,35.063
		c-2.223,10.37-2.963,17.778-2.223,21.976c-8.396,0-16.79-0.244-25.188-0.986c-8.396-0.738-15.803-2.221-22.469-4.688
		c-6.668-2.47-11.854-5.926-15.803-10.617c-3.951-4.691-5.68-11.111-5.188-19.756c0.493-5.432,2.224-13.084,5.188-23.207
		c2.717-10.125,6.173-21.234,10.124-33.582s8.146-24.693,12.592-37.532c4.445-12.84,8.642-24.445,12.594-35.313
		c3.95-10.616,7.406-19.507,10.371-26.667c2.963-6.912,4.938-10.863,5.681-11.853h-0.492c0.492-1.234,2.716-2.222,6.173-3.21
		c3.456-0.988,7.898-1.729,12.839-2.223c5.185-0.495,10.371-0.495,15.802-0.495c5.435,0.248,10.618,0.495,15.312,0.985
		c4.689,0.494,8.396,1.482,11.109,2.964c2.719,1.48,3.95,3.21,3.456,5.187c-0.492,2.222-1.231,3.95-1.974,4.938
		c-0.742,0.986-1.482,2.223-2.228,3.702c8.396-6.172,17.779-10.617,27.655-13.581c9.877-2.716,19.509-3.702,28.397-2.716
		c8.891,0.988,16.791,3.952,23.702,9.138c6.666,5.187,11.11,12.348,13.087,21.481c11.604-12.594,23.211-21.481,35.313-26.423
		c11.853-4.938,26.421-5.926,43.212-2.714c9.629,1.974,16.792,5.925,21.234,11.851c4.688,5.93,7.405,12.592,8.643,20.249
		c1.234,7.654,0.988,15.559-0.74,23.951c-1.479,8.396-3.456,15.803-5.68,22.469c-3.21,7.409-6.174,15.063-9.383,23.458
		c-3.212,8.396-5.929,16.049-7.903,23.457c-1.975,8.892-2.715,14.816-1.975,17.777c0.737,2.719,2.222,3.953,4.441,3.457
		c2.225-0.494,4.938-2.47,7.9-5.434C515.953,260.928,518.921,257.721,521.388,254.262z"/>
</g>
</svg>
